<svg width="43" height="33" viewBox="0 0 43 33" fill="none" xmlns="http://www.w3.org/2000/svg">
<path fill-rule="evenodd" clip-rule="evenodd" d="M30.1395 0C37.0752 0 42.6977 5.62247 42.6977 12.5581V20.093C42.6977 27.0287 37.0752 32.6512 30.1395 32.6512H12.5581C5.62247 32.6512 1.21364e-07 27.0287 0 20.093V12.5581C0 5.62247 5.62247 2.83174e-07 12.5581 0H30.1395ZM17.5814 21.3488C16.8878 21.3488 16.3256 21.9111 16.3256 22.6046C16.3256 23.2982 16.8878 23.8605 17.5814 23.8605H33.907C34.6005 23.8605 35.1628 23.2982 35.1628 22.6046C35.1628 21.9111 34.6005 21.3488 33.907 21.3488H17.5814ZM8.7907 13.814C8.09713 13.814 7.53488 14.3762 7.53488 15.0698C7.53488 15.7633 8.09713 16.3256 8.7907 16.3256H25.1163C25.8098 16.3256 26.3721 15.7633 26.3721 15.0698C26.3721 14.3762 25.8098 13.814 25.1163 13.814H8.7907ZM8.7907 7.53488C8.09713 7.53488 7.53488 8.09713 7.53488 8.7907C7.53488 9.48426 8.09713 10.0465 8.7907 10.0465H33.907C34.6005 10.0465 35.1628 9.48426 35.1628 8.7907C35.1628 8.09713 34.6005 7.53488 33.907 7.53488H8.7907Z" fill="#C0C0C0"/>
</svg>
