<svg width="35" height="35" viewBox="0 0 35 35" fill="none" xmlns="http://www.w3.org/2000/svg">
<path d="M15.7957 0.115349C15.1875 0.381905 14.9483 0.80566 14.8457 1.81721C14.8047 2.22729 14.7501 2.71256 14.7296 2.89027L14.6886 3.2115L14.34 3.28668C14.1418 3.32769 13.7113 3.43705 13.3764 3.53273C12.8775 3.6831 12.7613 3.69677 12.7134 3.62159C12.6793 3.56691 12.3854 3.15682 12.0574 2.71256C11.3466 1.74886 11.1484 1.61216 10.465 1.61216C10.0276 1.61216 10.0071 1.619 8.81108 2.31615C7.98413 2.79458 7.5194 3.10898 7.35538 3.30035C6.90432 3.83346 6.93166 4.33924 7.50574 5.59L7.92263 6.49219L7.20503 7.203L6.49426 7.92065L5.59214 7.50373C4.34147 6.92961 3.83573 6.90227 3.30266 7.35337C3.1113 7.5174 2.79692 7.98217 2.31853 8.80917C1.62143 10.0053 1.6146 10.0258 1.6146 10.4632C1.6146 11.1467 1.75128 11.3449 2.71491 12.0557C3.15914 12.3838 3.5692 12.6777 3.62387 12.7118C3.69905 12.7597 3.68538 12.8759 3.53503 13.3748C3.43935 13.7097 3.33 14.1403 3.28899 14.3385L3.21381 14.6871L2.8926 14.7281C2.71491 14.7486 2.23651 14.8033 1.81962 14.8443C0.801318 14.9468 0.370759 15.186 0.117891 15.808C-0.039297 16.1771 -0.039297 18.8289 0.117891 19.198C0.370759 19.82 0.801318 20.0592 1.81962 20.1617C2.23651 20.2027 2.71491 20.2574 2.8926 20.2779L3.21381 20.3189L3.28899 20.6675C3.33 20.8657 3.43935 21.2963 3.53503 21.6244C3.63071 21.9593 3.69905 22.2395 3.68538 22.2463C3.67855 22.26 3.27532 22.5471 2.79692 22.8888C1.74445 23.6543 1.6146 23.832 1.6146 24.5086V24.9871L2.28435 26.149C2.6534 26.7846 3.0703 27.4271 3.20698 27.5638C3.73322 28.1106 4.29363 28.0969 5.59214 27.5023L6.48743 27.0853L7.20503 27.803L7.91579 28.5138L7.50574 29.416C6.91115 30.7214 6.89749 31.2751 7.44423 31.8013C7.58091 31.938 8.22333 32.3549 8.85892 32.724C10.0071 33.387 10.0276 33.3938 10.465 33.3938C11.1484 33.3938 11.3466 33.2571 12.0574 32.2934C12.3854 31.8492 12.6793 31.4391 12.7134 31.3844C12.7613 31.3092 12.8775 31.3229 13.3764 31.4733C13.7113 31.5689 14.1486 31.6851 14.3468 31.7261C14.5382 31.7672 14.7022 31.8218 14.7022 31.856C14.7022 31.8833 14.7501 32.3618 14.8116 32.9154C14.9209 33.9885 15.0166 34.2687 15.3651 34.6036C15.741 34.9658 15.9392 35 17.5043 35C19.0693 35 19.2675 34.9658 19.6434 34.6036C19.9714 34.296 20.0808 33.9953 20.1628 33.1888C20.2038 32.7719 20.2585 32.2934 20.279 32.1157L20.32 31.7945L20.6685 31.7193C20.8667 31.6783 21.2973 31.5689 21.6322 31.4733C22.1311 31.3229 22.2473 31.3092 22.2951 31.3844C22.3293 31.4391 22.6231 31.8492 22.9512 32.2934C23.6619 33.2571 23.8601 33.3938 24.5436 33.3938C24.981 33.3938 25.0083 33.3802 26.1154 32.7445C27.7693 31.7945 28.0017 31.5348 27.947 30.7351C27.9265 30.407 27.8309 30.1268 27.5028 29.416L27.0859 28.5206L27.8035 27.803L28.5143 27.0922L29.4164 27.5023C30.7217 28.0969 31.2753 28.1106 31.8016 27.5638C31.9382 27.4271 32.3551 26.7846 32.7242 26.149C33.3871 25.0007 33.3939 24.9802 33.3939 24.5428C33.3939 23.8593 33.2573 23.6611 32.2936 22.9503C31.8494 22.6222 31.4393 22.3283 31.3847 22.2942C31.3095 22.2463 31.3232 22.1301 31.4735 21.6312C31.5692 21.2963 31.6854 20.8589 31.7264 20.6675C31.7674 20.4693 31.8221 20.3053 31.8562 20.3053C31.8836 20.3053 32.362 20.2574 32.9155 20.1959C33.9885 20.0865 34.2687 19.9909 34.6036 19.6423C34.9658 19.2664 35 19.0682 35 17.503C35 15.9378 34.9658 15.7396 34.6036 15.3637C34.2756 15.0151 34.0022 14.9263 32.9155 14.8101C32.3551 14.7486 31.8699 14.7007 31.8426 14.7007C31.8221 14.7007 31.7674 14.5367 31.7264 14.3385C31.6854 14.1471 31.5692 13.7097 31.4735 13.3816C31.3778 13.0467 31.3095 12.7665 31.3232 12.7597C31.33 12.746 31.7196 12.4726 32.1843 12.1377C33.0659 11.5089 33.2163 11.3449 33.3598 10.9143C33.5306 10.388 33.435 10.1009 32.6832 8.80234C31.7947 7.27135 31.5555 7.0458 30.8106 7.0458C30.5236 7.0458 30.2707 7.12782 29.4779 7.48323L28.5074 7.92065L27.7967 7.203L27.0928 6.48535L27.5028 5.58316C28.1111 4.27089 28.1111 3.72411 27.5301 3.16366C27.4071 3.04746 26.792 2.65105 26.1496 2.28197C25.0015 1.619 24.981 1.61216 24.5436 1.61216C23.8601 1.61216 23.6619 1.74886 22.9512 2.71256C22.6231 3.15682 22.3293 3.56691 22.2951 3.62159C22.2473 3.69677 22.1311 3.6831 21.6322 3.53273C21.2973 3.43705 20.8667 3.32769 20.6685 3.28668L20.32 3.2115L20.279 2.89027C20.2585 2.71256 20.2038 2.22729 20.1628 1.81721C20.0603 0.798828 19.8211 0.368237 19.1992 0.115349C18.837 -0.041851 16.1511 -0.0350151 15.7957 0.115349ZM19.2265 7.44905C21.2358 7.79763 23.0332 8.70665 24.5299 10.1488C25.4115 11.0031 25.9924 11.7686 26.5187 12.787C27.0791 13.8806 27.5506 15.2817 27.5506 15.8763V16.0677H24.2087H20.8667L20.6617 15.7055C20.3678 15.1928 20.0193 14.8169 19.5546 14.5025C18.96 14.1061 18.4611 13.9421 17.7161 13.8874L17.0805 13.8464L15.4403 11.01C14.5382 9.45164 13.7864 8.13937 13.7659 8.09152C13.7113 7.95483 15.3515 7.48323 16.3083 7.36704C16.9644 7.28502 18.5021 7.32603 19.2265 7.44905ZM12.9185 12.4658L14.5655 15.3295L14.3332 15.7465C14.2033 15.9788 14.0461 16.3548 13.9915 16.5803C13.8684 17.0382 13.8548 17.8721 13.9505 18.3027C14.0256 18.6102 14.2785 19.2049 14.463 19.4851C14.5792 19.6559 14.5587 19.6901 12.9253 22.5266C12.0095 24.1054 11.2441 25.4245 11.2167 25.4518C11.1484 25.5338 9.98658 24.4129 9.49451 23.8047C7.2187 20.9477 6.67196 16.8879 8.12082 13.5115C8.42836 12.787 9.00928 11.8165 9.49451 11.2013C9.98658 10.593 11.1484 9.47215 11.2167 9.55416C11.2441 9.5815 12.0095 10.8938 12.9185 12.4658ZM27.5506 19.1228C27.5506 19.3962 27.3183 20.3189 27.0996 20.9204C26.5597 22.424 25.7054 23.7295 24.4957 24.8914C23.0947 26.231 21.352 27.14 19.4384 27.5296C18.5773 27.7005 16.404 27.7005 15.5907 27.5296C14.7159 27.3382 13.7318 27.0102 13.7659 26.9145C13.7864 26.8666 14.5382 25.5544 15.4403 23.996L17.0805 21.1596L17.7161 21.1186C19.0078 21.0297 20.0398 20.3941 20.6617 19.2937L20.8667 18.9383H24.2087H27.5506V19.1228Z" fill="#C0C0C0"/>
</svg>
